{"title":"Lost S01E23 - AVM (Embedded subtitles)","uid":5043984,"size":152336366,"categoryP":"video","categoryS":"tv_shows","magnet":"?xt=urn:btih:33adc8a29651586051f15490c7c7d0dc2be89f67&amp;dn=Lost+S01E23+-+AVM+%28Embedded+subtitles%29&amp;tr=udp%3A%2F%2Ftracker.openbittorrent.com%3A80&amp;tr=udp%3A%2F%2Fopen.demonii.com%3A1337&amp;tr=udp%3A%2F%2Ftracker.coppersurfer.tk%3A6969&amp;tr=udp%3A%2F%2Fexodus.desync.com%3A6969","seeders":0,"leechers":1,"uploader":"SysProfile","files":1,"time":1249530070,"description":"AVIDMobile - http://www.avidmobile.com.ar (Mobile media)\n\n* The video contains embedded subtitles in Spanish. You can find the same video without the subtitles. Visit http://blog.avidmobile.com.ar.\n\n* El video contiene subtÃƒÂ­tulos incrustados en EspaÃƒÂ±ol. Usted podrÃƒÂ¡ encontrar el mismo video sin los subtÃƒÂ­tulos. Visite http://blog.avidmobile.com.ar.\n\nVideo\nID                               : 1\nFormat                           : MPEG-4 Visual\nFormat profile                   : Advanced Simple@L5\nFormat settings, BVOP            : Yes\nFormat settings, QPel            : No\nFormat settings, GMC             : No warppoints\nFormat settings, Matrix          : Default (H.263)\nCodec ID                         : 20\nDuration                         : 43mn 19s\nBit rate mode                    : Variable\nBit rate                         : 402 Kbps\nMaximum bit rate                 : 1 170 Kbps\nWidth                            : 320 pixels\nHeight                           : 240 pixels\nDisplay aspect ratio             : 4/3\nFrame rate mode                  : Variable\nFrame rate                       : 23.976 fps\nMinimum frame rate               : 23.974 fps\nMaximum frame rate               : 23.981 fps\nResolution                       : 24 bits\nColorimetry                      : 4:2:0\nScan type                        : Progressive\nBits/(Pixel*Frame)               : 0.218\nStream size                      : 125 MiB (86%)\n\nAudio\nID                               : 2\nFormat                           : AAC\nFormat/Info                      : Advanced Audio Codec\nFormat version                   : Version 4\nFormat profile                   : LC\nFormat settings, SBR             : No\nCodec ID                         : 40\nDuration                         : 43mn 19s\nBit rate mode                    : Variable\nBit rate                         : 63.2 Kbps\nMaximum bit rate                 : 119 Kbps\nChannel(s)                       : 2 channels\nChannel positions                : L R\nSampling rate                    : 22.05 KHz\nResolution                       : 16 bits\nStream size                      : 19.6 MiB (13%)\n","torrent":{"xt":"urn:btih:33adc8a29651586051f15490c7c7d0dc2be89f67","amp;dn":"Lost+S01E23+-+AVM+%28Embedded+subtitles%29","amp;tr":["udp%3A%2F%2Ftracker.openbittorrent.com%3A80","udp%3A%2F%2Fopen.demonii.com%3A1337","udp%3A%2F%2Ftracker.coppersurfer.tk%3A6969","udp%3A%2F%2Fexodus.desync.com%3A6969"],"infoHash":"33adc8a29651586051f15490c7c7d0dc2be89f67","infoHashBuffer":{"type":"Buffer","data":[51,173,200,162,150,81,88,96,81,241,84,144,199,199,208,220,43,232,159,103]},"announce":[],"urlList":[]}}